<?xml version="1.0" encoding="UTF-8"?>
<svg id="Layer_1" xmlns="http://www.w3.org/2000/svg" version="1.1" viewBox="0 0 100 100">
  <!-- Generator: Adobe Illustrator 29.6.1, SVG Export Plug-In . SVG Version: 2.1.1 Build 9)  -->
  <defs>
    <style>
      .st0 {
        stroke: #000;
        stroke-miterlimit: 10;
      }
    </style>
  </defs>
  <path class="st0" d="M50,0C22.4,0,0,22.4,0,50s22.4,50,50,50,50-22.4,50-50S77.6,0,50,0ZM45,32.8h-1.5c-1.4,0-2.4.2-3.1.7-.7.5-1.2,1.2-1.4,2.3-.2.6-.2,2.1-.3,4.6,0,2.5-.3,4.5-.9,5.9-.4,1.1-1.1,2-1.9,2.6-.6.5-1.6,1-3,1.5,1.5.6,2.5,1.2,3.2,1.8.7.6,1.3,1.6,1.8,2.8.5,1.3.8,3.3.8,6.1s.2,4.1.5,4.9c.3.8.8,1.3,1.5,1.6.7.3,2.1.5,4.3.5v9h-4.1c-4.2,0-7.3-.4-9-1.2-1.8-.8-3.1-1.9-3.8-3.5-.8-1.5-1.1-3.8-1.1-6.8s0-1.3,0-2c0-.4,0-.8,0-1.3,0-2.2-.2-3.7-.7-4.6-.5-.9-1.1-1.6-2-2-.9-.4-2.1-.6-3.7-.7v-9.6c1.7,0,2.9-.2,3.8-.7s1.5-1.1,1.9-2c.4-.9.7-2.5.7-4.7v-.9c0-.4,0-.9,0-1.3,0-3.3.3-5.7,1-7.1.6-1.5,1.5-2.6,2.7-3.4.8-.6,2-1,3.5-1.3,1.9-.4,4.1-.6,6.6-.6h4.4v9.1ZM78.5,55.2c-1.6,0-2.9.3-3.7.7-.9.4-1.5,1.1-2,2-.5.9-.7,2.4-.7,4.6s0,.8,0,1.3c0,.7,0,1.3,0,2,0,3-.4,5.3-1.1,6.8-.8,1.5-2,2.7-3.8,3.5-1.8.8-4.8,1.2-9,1.2h-4.1v-9c2.1,0,3.6-.2,4.3-.5.7-.3,1.2-.9,1.5-1.6.3-.8.5-2.4.5-4.9s.2-4.8.8-6.1c.5-1.3,1.1-2.2,1.8-2.8.7-.6,1.8-1.2,3.2-1.8-1.4-.5-2.4-1-3-1.5-.8-.7-1.4-1.5-1.9-2.6-.6-1.4-.9-3.4-.9-5.9,0-2.5-.1-4-.3-4.6-.3-1-.8-1.8-1.4-2.3-.7-.5-1.7-.7-3.1-.7h-1.5v-9.1h4.4c2.5,0,4.7.2,6.6.6,1.5.3,2.6.7,3.5,1.3,1.1.8,2,1.9,2.7,3.4.6,1.5,1,3.8,1,7.1s0,.9,0,1.3v.9c0,2.2.2,3.7.7,4.7.4.9,1.1,1.6,1.9,2s2.1.7,3.8.7v9.6Z"/>
</svg>